# File created by Blade
# Date/Time:  Wed Jan 21 16:20:01 2015
# Frame Rate: 120.000 fps
#------------------------------------------------------
:FULLY-SPECIFIED
:DEGREES
524
root 16.161482 35.692673 -19.342297 -178.604182 -10.137091 -180.776511
Spine 1.343900 -2.963060 -3.604065
Head 18.146084 -6.139833 5.159457
LeftShoulder -4.215399 -24.951181 -3.174950
LeftArm -0.970361 15.058487 -62.720113
LeftForeArm -3.582290 -0.000000 1.702582
LeftHand -1.780996 -0.000000 5.221687
LeftHandThumb1 -26.253704 0.000000 33.147579
RightShoulder -8.978750 -12.716144 11.608264
RightArm 8.473096 7.792917 67.275148
RightForeArm -21.281903 -0.000000 20.338268
RightHand 0.320604 0.000000 3.242284
RightHandThumb1 -24.326973 -0.000000 -32.862282
LeftUpLeg 5.284820 4.979707 -5.757758
LeftLeg -13.142052 -0.000000 0.000000
LeftFoot 1.487929 21.639748 4.031511
LeftToeBase -155.302532 -0.000000 0.000000
RightUpLeg -12.700507 -6.421486 4.193020
RightLeg 26.758389 -0.000000 -0.000000
RightFoot -28.242539 -27.368256 22.963127
RightToeBase 15.423546 -0.000000 -0.000000
525
root 16.102154 35.696537 -19.276609 -178.572421 -10.269595 -180.778064
Spine 1.467187 -3.302393 -3.574667
Head 17.935468 -6.101305 5.190109
LeftShoulder -3.885647 -24.971592 -3.307303
LeftArm -0.207294 16.444235 -62.933569
LeftForeArm -3.112499 -0.000000 2.054320
LeftHand -1.793552 0.000000 4.963706
LeftHandThumb1 -26.253704 0.000000 33.147579
RightShoulder -8.961858 -12.631495 11.495187
RightArm 8.360975 7.883388 67.194059
RightForeArm -21.259132 0.000000 20.496467
RightHand 0.259454 0.000000 3.011177
RightHandThumb1 -24.326973 -0.000000 -32.862282
LeftUpLeg 5.177029 4.851460 -5.859282
LeftLeg -13.161507 -0.000000 0.000000
LeftFoot 1.544651 21.465621 3.947987
LeftToeBase -155.623413 -0.000000 0.000000
RightUpLeg -13.664986 -5.348434 4.097480
RightLeg 28.361650 -0.000000 -0.000000
RightFoot -27.709096 -28.433190 22.892524
RightToeBase 14.849469 -0.000000 -0.000000
526
root 16.047180 35.700330 -19.212023 -178.529815 -10.484763 -180.765931
Spine 1.568945 -3.750637 -3.542034
Head 17.764460 -5.985232 5.251671
LeftShoulder -3.587210 -25.028555 -3.387098
LeftArm 0.542675 17.773489 -63.160895
LeftForeArm -2.831556 -0.000000 2.392856
LeftHand -1.863232 -0.000000 4.786699
LeftHandThumb1 -26.253704 0.000000 33.147579
RightShoulder -8.890886 -12.560915 11.361278
RightArm 8.186029 8.065117 67.139382
RightForeArm -21.365443 -0.000000 20.678057
RightHand 0.207686 -0.000000 2.877609
RightHandThumb1 -24.326973 -0.000000 -32.862282
LeftUpLeg 5.063986 4.518871 -5.940997
LeftLeg -13.185685 -0.000000 0.000000
LeftFoot 1.637673 21.372976 3.844186
LeftToeBase -155.825920 -0.000000 0.000000
RightUpLeg -14.678485 -4.325682 4.012256
RightLeg 30.015444 -0.000000 -0.000000
RightFoot -26.930658 -29.602672 22.538589
RightToeBase 14.416134 -0.000000 -0.000000
527
root 15.998284 35.706057 -19.151599 -178.533797 -10.736997 -180.681568
Spine 1.723474 -4.232979 -3.418412
Head 17.526178 -5.957611 5.241241
LeftShoulder -3.295356 -25.113199 -3.507069
LeftArm 1.318907 19.126961 -63.332302
LeftForeArm -2.439932 -0.000000 2.770328
LeftHand -2.035904 0.000000 4.794055
LeftHandThumb1 -26.253704 0.000000 33.147579
RightShoulder -8.853982 -12.489135 11.225414
RightArm 8.049623 8.230287 67.066793
RightForeArm -21.508717 -0.000000 20.830871
RightHand 0.056000 -0.000000 2.911639
RightHandThumb1 -24.326973 -0.000000 -32.862282
LeftUpLeg 5.000178 4.189440 -5.946237
LeftLeg -13.253595 -0.000000 0.000000
LeftFoot 1.766546 21.287762 3.805893
LeftToeBase -156.076885 -0.000000 0.000000
RightUpLeg -15.687269 -3.274777 4.005654
RightLeg 31.693967 -0.000000 -0.000000
RightFoot -26.014222 -30.868596 22.179767
RightToeBase 14.055847 -0.000000 -0.000000
528
root 15.947776 35.708961 -19.080893 -178.500882 -10.857894 -180.667858
Spine 1.878793 -4.598510 -3.403905
Head 17.267695 -5.784621 5.308248
LeftShoulder -3.004325 -25.168587 -3.541026
LeftArm 2.139397 20.437059 -63.496679
LeftForeArm -1.814721 -0.000000 3.143103
LeftHand -1.973058 -0.000000 4.631945
LeftHandThumb1 -26.253704 0.000000 33.147579
RightShoulder -8.818718 -12.377005 11.104534
RightArm 7.866729 8.341261 66.991199
RightForeArm -21.676626 -0.000000 21.069872
RightHand -0.117231 -0.000000 2.822716
RightHandThumb1 -24.326973 -0.000000 -32.862282
LeftUpLeg 4.906050 3.924743 -6.040860
LeftLeg -13.337842 -0.000000 0.000000
LeftFoot 1.929355 21.338971 3.717154
LeftToeBase -156.447120 -0.000000 0.000000
RightUpLeg -16.814349 -2.076205 3.920456
RightLeg 33.472706 -0.000000 -0.000000
RightFoot -24.863524 -32.178146 21.522530
RightToeBase 13.809566 -0.000000 -0.000000
